<svg width="75" height="75" viewBox="0 0 75 75" fill="none" xmlns="http://www.w3.org/2000/svg">
<rect x="7" y="10" width="62" height="60" rx="20" fill="#372D11"/>
<path d="M69.1406 0H5.85938C2.62188 0 0 2.625 0 5.85938V69.1406C0 72.3781 2.625 75 5.85938 75H69.1406C72.3781 75 75 72.375 75 69.1406V5.85938C75 2.62188 72.375 0 69.1406 0ZM37.5 58.5938C35.6531 58.5938 33.8437 58.4656 32.0875 58.2187C30.3312 59.4562 20.1719 66.5906 19.2125 66.725C19.2125 66.725 18.8219 66.8781 18.4875 66.6813C18.1531 66.4844 18.2125 65.9656 18.2125 65.9656C18.3125 65.2781 20.8469 56.5344 21.3125 54.925C12.7344 50.675 7.03125 43.1469 7.03125 34.5719C7.03125 21.3031 20.6719 10.5469 37.5 10.5469C54.3281 10.5469 67.9688 21.3031 67.9688 34.5719C67.9688 47.8375 54.3281 58.5938 37.5 58.5938ZM25.1562 30.8344H22.4125V41.2781C22.4125 42.2031 21.625 42.9562 20.6531 42.9562C19.6813 42.9562 18.8969 42.2062 18.8969 41.2781V30.8344H16.1531C15.7188 30.8023 15.3127 30.6071 15.0163 30.288C14.7199 29.9689 14.5552 29.5496 14.5552 29.1141C14.5552 28.6786 14.7199 28.2592 15.0163 27.9401C15.3127 27.621 15.7188 27.4258 16.1531 27.3937H25.1531C25.5874 27.4258 25.9935 27.621 26.2899 27.9401C26.5863 28.2592 26.751 28.6786 26.751 29.1141C26.751 29.5496 26.5863 29.9689 26.2899 30.288C25.9935 30.6071 25.5874 30.8023 25.1531 30.8344M59.4875 40.075C59.6278 40.2588 59.7302 40.4686 59.7887 40.6923C59.8472 40.9161 59.8606 41.1492 59.8281 41.3781C59.796 41.6065 59.719 41.8262 59.6016 42.0247C59.4841 42.2231 59.3285 42.3964 59.1438 42.5344C58.8402 42.7657 58.4691 42.8909 58.0875 42.8906C57.8147 42.8921 57.5453 42.8295 57.3011 42.7079C57.0569 42.5864 56.8446 42.4092 56.6813 42.1906L52.5594 36.7313L51.95 37.3406V41.175C51.9492 41.6408 51.764 42.0874 51.4349 42.4171C51.1058 42.7467 50.6596 42.9327 50.1938 42.9344C49.7271 42.9344 49.2796 42.749 48.9497 42.4191C48.6197 42.0891 48.4344 41.6416 48.4344 41.175V29.15C48.4535 28.6966 48.6471 28.2682 48.9746 27.9541C49.3022 27.6401 49.7384 27.4648 50.1922 27.4648C50.646 27.4648 51.0822 27.6401 51.4098 27.9541C51.7373 28.2682 51.9309 28.6966 51.95 29.15V32.9313L56.8563 28.025C56.9843 27.8986 57.1361 27.7987 57.3029 27.7311C57.4697 27.6636 57.6482 27.6296 57.8281 27.6313C58.2656 27.6313 58.7094 27.8219 59.0406 28.1531C59.3422 28.4488 59.5256 28.8444 59.5563 29.2656C59.5725 29.4616 59.5462 29.6588 59.4794 29.8438C59.4125 30.0288 59.3066 30.1972 59.1688 30.3375L55.1625 34.3406L59.4875 40.075ZM33.3937 29.1312C33.0969 28.2875 32.1969 27.4187 31.05 27.3937C29.9062 27.4187 29.0063 28.2875 28.7094 29.1281L24.5063 40.1938C23.9719 41.85 24.4375 42.4688 24.9219 42.6937C25.2721 42.8532 25.6527 42.9353 26.0375 42.9344C26.7719 42.9344 27.3312 42.6375 27.5 42.1594L28.3719 39.8781H33.7313L34.6031 42.1594C34.7719 42.6375 35.3313 42.9344 36.0656 42.9344C36.4507 42.934 36.8311 42.8509 37.1812 42.6906C37.6656 42.4688 38.1312 41.8531 37.5969 40.1906L33.3937 29.1312ZM29.2969 36.7656L31.0531 31.7781L32.8063 36.7656H29.2969ZM47.75 41.0875C47.7402 41.5246 47.5572 41.9399 47.2414 42.2422C46.9256 42.5446 46.5027 42.7092 46.0656 42.7H40.4281C40.2114 42.705 39.9959 42.6672 39.7938 42.5889C39.5917 42.5105 39.407 42.3931 39.2503 42.2434C39.0936 42.0936 38.9679 41.9145 38.8805 41.7161C38.793 41.5178 38.7455 41.3042 38.7406 41.0875V29.15C38.7406 28.1812 39.5469 27.3937 40.5375 27.3937C41.5281 27.3937 42.3312 28.1812 42.3312 29.15V39.4781H46.0656C46.9937 39.4781 47.7531 40.2 47.7531 41.0875" fill="#FAE100"/>
</svg>
