<svg width="25" height="25" viewBox="0 0 25 25" fill="none" xmlns="http://www.w3.org/2000/svg">
<path d="M22.9163 20.7471C23.1926 20.7471 23.4576 20.6417 23.6529 20.4542C23.8483 20.2666 23.958 20.0123 23.958 19.7471L23.958 5.74707C23.958 5.48185 23.8483 5.2275 23.6529 5.03996C23.4576 4.85243 23.1926 4.74707 22.9163 4.74707C22.6401 4.74707 22.3751 4.85243 22.1798 5.03996C21.9844 5.2275 21.8747 5.48185 21.8747 5.74707L21.8747 11.4141L12.2674 5.26507C12.189 5.21496 12.0978 5.18622 12.0037 5.1819C11.9096 5.17758 11.8161 5.19784 11.733 5.24053C11.65 5.28322 11.5805 5.34673 11.5321 5.42431C11.4837 5.50189 11.4581 5.59063 11.458 5.68107L11.458 11.4141L1.85072 5.26507C1.77228 5.21496 1.68116 5.18622 1.58706 5.1819C1.49296 5.17758 1.3994 5.19784 1.31634 5.24053C1.23329 5.28322 1.16384 5.34673 1.11542 5.42431C1.06699 5.50189 1.04139 5.59063 1.04134 5.68107L1.04134 19.8131C1.04139 19.9035 1.06699 19.9922 1.11542 20.0698C1.16384 20.1474 1.23328 20.2109 1.31634 20.2536C1.3994 20.2963 1.49296 20.3166 1.58706 20.3122C1.68116 20.3079 1.77228 20.2792 1.85072 20.2291L11.458 14.0811L11.458 19.8131C11.4581 19.9035 11.4837 19.9922 11.5321 20.0698C11.5805 20.1474 11.65 20.2109 11.733 20.2536C11.8161 20.2963 11.9096 20.3166 12.0037 20.3122C12.0978 20.3079 12.189 20.2792 12.2674 20.2291L21.8747 14.0801L21.8747 19.7471C21.8747 20.0123 21.9844 20.2666 22.1798 20.4542C22.3751 20.6417 22.6401 20.7471 22.9163 20.7471Z" fill="#0066B3"/>
</svg>
