<svg width="25" height="25" viewBox="0 0 25 25" fill="none" xmlns="http://www.w3.org/2000/svg">
<path d="M2.08366 4.74707C1.80739 4.74707 1.54244 4.85243 1.34709 5.03996C1.15174 5.2275 1.04199 5.48185 1.04199 5.74707V19.7471C1.04199 20.0123 1.15174 20.2666 1.34709 20.4542C1.54244 20.6417 1.80739 20.7471 2.08366 20.7471C2.35993 20.7471 2.62488 20.6417 2.82023 20.4542C3.01558 20.2666 3.12533 20.0123 3.12533 19.7471V14.0801L12.7326 20.2291C12.811 20.2792 12.9022 20.3079 12.9963 20.3122C13.0904 20.3166 13.1839 20.2963 13.267 20.2536C13.35 20.2109 13.4195 20.1474 13.4679 20.0698C13.5163 19.9922 13.5419 19.9035 13.542 19.8131V14.0801L23.1493 20.2291C23.2277 20.2792 23.3188 20.3079 23.4129 20.3122C23.507 20.3166 23.6006 20.2963 23.6837 20.2536C23.7667 20.2109 23.8362 20.1474 23.8846 20.0698C23.933 19.9922 23.9586 19.9035 23.9587 19.8131V5.68107C23.9586 5.59063 23.933 5.50189 23.8846 5.42431C23.8362 5.34673 23.7667 5.28322 23.6837 5.24053C23.6006 5.19784 23.507 5.17758 23.4129 5.1819C23.3188 5.18622 23.2277 5.21497 23.1493 5.26507L13.542 11.4131V5.68107C13.5419 5.59063 13.5163 5.50189 13.4679 5.42431C13.4195 5.34673 13.35 5.28322 13.267 5.24053C13.1839 5.19784 13.0904 5.17758 12.9963 5.1819C12.9022 5.18622 12.811 5.21497 12.7326 5.26507L3.12533 11.4141V5.74707C3.12533 5.48185 3.01558 5.2275 2.82023 5.03996C2.62488 4.85243 2.35993 4.74707 2.08366 4.74707Z" fill="#0066B3"/>
</svg>
