<svg width="20" height="26" viewBox="0 0 20 26" fill="none" xmlns="http://www.w3.org/2000/svg">
<path d="M17.4988 25.0116H7.49421C6.99398 25.0116 6.66049 24.6781 6.66049 24.1779C6.66049 22.9273 6.07689 22.1769 5.1598 21.0097C4.65957 20.4261 4.07596 19.6758 3.49236 18.7587C1.90829 16.2575 0.490968 13.2561 0.15748 12.1723C-0.176007 11.0885 0.0741085 10.3381 0.407596 9.92126C0.741084 9.42103 1.40806 9.17091 2.15841 9.17091C3.15887 9.17091 4.15933 10.0046 5.07642 11.0885V2.50116C5.07642 1.08383 6.16026 0 7.57758 0C8.99491 0 10.0787 1.08383 10.0787 2.50116V6.00278C10.3289 5.91941 10.579 5.83603 10.9125 5.83603C11.8296 5.83603 12.5799 6.33627 12.9968 7.00324C13.3302 6.75313 13.7471 6.66975 14.164 6.66975C15.3312 6.66975 16.2483 7.4201 16.5818 8.50394C16.8319 8.42057 17.1654 8.33719 17.4988 8.33719C18.9162 8.33719 20 9.42103 20 10.8384V13.3395C20 15.5072 19.5831 17.258 19.1663 18.9254C18.7494 20.5929 18.3326 22.1769 18.3326 24.1779C18.3326 24.6781 17.9991 25.0116 17.4988 25.0116ZM8.24456 23.3441H16.6651C16.7485 21.51 17.1654 20.0093 17.4988 18.5086C17.9157 16.8411 18.3326 15.2571 18.3326 13.3395V10.8384C18.3326 10.3381 17.9991 10.0046 17.4988 10.0046C16.9986 10.0046 16.6651 10.3381 16.6651 10.8384V11.6721C16.6651 12.1723 16.3316 12.5058 15.8314 12.5058C15.3312 12.5058 14.9977 12.1723 14.9977 11.6721V9.17091C14.9977 8.67068 14.6642 8.33719 14.164 8.33719C13.6637 8.33719 13.3302 8.67068 13.3302 9.17091V10.8384C13.3302 11.3386 12.9968 11.6721 12.4965 11.6721C11.9963 11.6721 11.6628 11.3386 11.6628 10.8384V8.33719C11.6628 7.83696 11.3293 7.50347 10.8291 7.50347C10.3289 7.50347 9.99537 7.83696 9.99537 8.33719V10.0046C9.99537 10.5049 9.66188 10.8384 9.16165 10.8384C8.66142 10.8384 8.32793 10.5049 8.32793 10.0046V2.50116C8.32793 2.00093 7.99444 1.66744 7.49421 1.66744C6.99398 1.66744 6.66049 2.00093 6.66049 2.50116V15.0069C6.66049 15.5072 6.327 15.8407 5.82677 15.8407C5.32654 15.8407 4.99305 15.5072 4.99305 15.0069V14.34C4.24271 12.4224 2.65864 10.8384 2.07503 10.8384C1.90829 10.8384 1.74155 10.8384 1.65818 10.9217C1.5748 11.0051 1.5748 11.2552 1.65818 11.6721C1.90829 12.5892 3.15887 15.2571 4.82631 17.925C5.32654 18.7587 5.82677 19.3423 6.327 20.0093C7.2441 21.0097 8.07781 21.9268 8.24456 23.3441Z" fill="white"/>
</svg>
