<svg width="58" height="61" viewBox="0 0 58 61" fill="none" xmlns="http://www.w3.org/2000/svg">
<path fill-rule="evenodd" clip-rule="evenodd" d="M28.6079 0.853516C21.0795 0.853516 14.2212 3.33455 10.1629 5.36162C9.79619 5.54454 9.45452 5.72413 9.13619 5.89707C8.50619 6.23962 7.96952 6.5589 7.54286 6.83993L12.1595 13.6212L14.3329 14.4842C22.8262 18.7595 34.2162 18.7595 42.7112 14.4842L45.1779 13.2071L49.5429 6.83993C48.6387 6.25136 47.6986 5.71985 46.7279 5.24854C42.6895 3.24309 35.9945 0.853516 28.6095 0.853516M17.8729 8.52943C16.2381 8.22422 14.6234 7.81994 13.0379 7.31884C16.8395 5.63433 22.5045 3.84672 28.6095 3.84672C32.8379 3.84672 36.8362 4.70478 40.1429 5.79231C36.2679 6.33607 32.1329 7.25898 28.1929 8.39473C25.0929 9.28937 21.4695 9.19292 17.8729 8.52943ZM44.4729 16.9503L44.0629 17.1565C34.7195 21.8592 22.3262 21.8592 12.9829 17.1565L12.5945 16.9603C-1.44381 32.3271 -12.1605 60.7127 28.6079 60.7127C69.3762 60.7127 58.3995 31.7999 44.4729 16.9503ZM26.8762 30.7856C25.9921 30.7856 25.1443 31.136 24.5192 31.7597C23.894 32.3834 23.5429 33.2293 23.5429 34.1114C23.5429 34.9934 23.894 35.8393 24.5192 36.4631C25.1443 37.0868 25.9921 37.4372 26.8762 37.4372V30.7856ZM30.2095 27.4598V25.7969H26.8762V27.4598C25.1081 27.4598 23.4124 28.1606 22.1621 29.408C20.9119 30.6554 20.2095 32.3473 20.2095 34.1114C20.2095 35.8755 20.9119 37.5673 22.1621 38.8147C23.4124 40.0621 25.1081 40.7629 26.8762 40.7629V47.4145C25.4262 47.4145 24.1912 46.4916 23.7312 45.1979C23.6629 44.9862 23.5528 44.7904 23.4074 44.6219C23.262 44.4534 23.0841 44.3158 22.8845 44.2171C22.6848 44.1184 22.4673 44.0606 22.2448 44.0473C22.0224 44.0339 21.7995 44.0652 21.5894 44.1392C21.3793 44.2133 21.1862 44.3287 21.0215 44.4785C20.8569 44.6283 20.724 44.8096 20.6308 45.0115C20.5375 45.2135 20.4859 45.432 20.4788 45.6543C20.4717 45.8765 20.5094 46.0979 20.5895 46.3054C21.0493 47.6024 21.9007 48.7253 23.0265 49.5195C24.1524 50.3138 25.4973 50.7403 26.8762 50.7403V52.4032H30.2095V50.7403C31.9776 50.7403 33.6733 50.0395 34.9236 48.7921C36.1738 47.5447 36.8762 45.8528 36.8762 44.0887C36.8762 42.3246 36.1738 40.6328 34.9236 39.3854C33.6733 38.1379 31.9776 37.4372 30.2095 37.4372V30.7856C31.6595 30.7856 32.8945 31.7085 33.3545 33.0022C33.4228 33.2139 33.5329 33.4097 33.6783 33.5782C33.8237 33.7467 34.0016 33.8843 34.2013 33.983C34.4009 34.0817 34.6184 34.1395 34.8409 34.1528C35.0633 34.1662 35.2862 34.1349 35.4963 34.0609C35.7065 33.9868 35.8996 33.8714 36.0642 33.7216C36.2289 33.5718 36.3617 33.3905 36.4549 33.1886C36.5482 32.9866 36.5998 32.768 36.6069 32.5458C36.614 32.3236 36.5764 32.1022 36.4962 31.8947C36.0365 30.5977 35.185 29.4748 34.0592 28.6805C32.9333 27.8863 31.5884 27.4598 30.2095 27.4598ZM30.2095 40.7629V47.4145C31.0936 47.4145 31.9414 47.0641 32.5665 46.4404C33.1917 45.8167 33.5429 44.9708 33.5429 44.0887C33.5429 43.2067 33.1917 42.3607 32.5665 41.737C31.9414 41.1133 31.0936 40.7629 30.2095 40.7629Z" fill="black"/>
</svg>
