<svg width="80" height="56" viewBox="0 0 80 56" fill="none" xmlns="http://www.w3.org/2000/svg">
<path d="M61.5771 19.4601L60.8057 19.1967L54.32 7.52055C53.1019 5.32628 51.2855 3.49122 49.0651 2.21161C46.8447 0.932009 44.3039 0.255992 41.7143 0.255859H25.3829C22.3839 0.255742 19.4609 1.1619 17.0281 2.84591C14.5954 4.52992 12.7763 6.90638 11.8286 9.6385L8.73714 18.5438C6.14717 19.592 3.93675 21.3505 2.38262 23.5992C0.828484 25.8479 -0.000306608 28.4868 8.50875e-08 31.1857V37.2926C8.50875e-08 41.1883 2.41714 44.5353 5.88571 46.0442C6.33489 48.5154 7.65225 50.7643 9.61835 52.4161C11.5845 54.068 14.0806 55.0232 16.6911 55.1227C19.3015 55.2221 21.8686 54.4598 23.9648 52.9627C26.061 51.4655 27.5598 49.324 28.2114 46.8947H51.7886C52.4402 49.324 53.939 51.4655 56.0352 52.9627C58.1314 54.4598 60.6985 55.2221 63.3089 55.1227C65.9194 55.0232 68.4156 54.068 70.3817 52.4161C72.3478 50.7643 73.6651 48.5154 74.1143 46.0442C75.8683 45.284 77.3566 44.0538 78.4007 42.5015C79.4446 40.9491 80 39.1405 80 37.2926V35.4325C79.9996 32.6008 79.0865 29.8387 77.3861 27.5251C75.6857 25.2116 73.2813 23.46 70.5029 22.5108L61.8743 19.5643V19.4601H61.5771ZM17.24 11.3724C17.8092 9.73149 18.9022 8.30448 20.3639 7.29392C21.8256 6.28337 23.5817 5.74064 25.3829 5.74278H31.4286V19.4601H14.44L17.24 11.3724ZM54.4743 19.4601H37.1429V5.74278H41.7143C43.2682 5.74225 44.793 6.14735 46.1257 6.91473C47.4583 7.68212 48.5486 8.78292 49.28 10.0994L54.4743 19.4601ZM11.4286 44.1513C11.4286 42.696 12.0306 41.3004 13.1022 40.2714C14.1739 39.2424 15.6273 38.6643 17.1429 38.6643C18.6584 38.6643 20.1118 39.2424 21.1835 40.2714C22.2551 41.3004 22.8571 42.696 22.8571 44.1513C22.8571 45.6065 22.2551 47.0021 21.1835 48.0311C20.1118 49.0601 18.6584 49.6382 17.1429 49.6382C15.6273 49.6382 14.1739 49.0601 13.1022 48.0311C12.0306 47.0021 11.4286 45.6065 11.4286 44.1513ZM62.8571 38.6643C64.3727 38.6643 65.8261 39.2424 66.8978 40.2714C67.9694 41.3004 68.5714 42.696 68.5714 44.1513C68.5714 45.6065 67.9694 47.0021 66.8978 48.0311C65.8261 49.0601 64.3727 49.6382 62.8571 49.6382C61.3416 49.6382 59.8882 49.0601 58.8165 48.0311C57.7449 47.0021 57.1429 45.6065 57.1429 44.1513C57.1429 42.696 57.7449 41.3004 58.8165 40.2714C59.8882 39.2424 61.3416 38.6643 62.8571 38.6643Z" fill="black"/>
</svg>
