<svg width="70" height="70" viewBox="0 0 70 70" fill="none" xmlns="http://www.w3.org/2000/svg">
<path d="M43.75 0C48.5625 0 52.5 3.9375 52.5 8.75C52.5 12.6875 49.875 16.1875 45.9375 17.0625V17.5C47.6875 17.5 49 18.375 50.3125 19.6875L56 25.375C56.4375 25.8125 57.3125 26.25 58.1875 26.25H65.625V0H43.75Z" fill="black"/>
<path d="M51.625 63.4375L35 43.75V54.6875C35 58.1875 31.9375 61.25 28.4375 61.25H13.125C10.5 61.25 8.75 59.5 8.75 56.875C8.75 54.25 10.5 52.5 13.125 52.5H24.0625C25.375 52.5 26.25 51.625 26.25 50.3125V41.5625C26.25 38.5 26.6875 35.875 28 32.8125L31.0625 26.25H27.5625C25.375 26.25 23.625 27.125 22.3125 28.875L20.125 31.9375C19.25 33.6875 17.0625 34.125 14.875 33.25C13.125 31.9375 12.25 29.3125 14 27.5625L16.625 24.0625C19.6875 19.6875 24.9375 17.5 30.1875 17.5H38.9375L39.375 16.1875C36.75 14.875 35 11.8125 35 8.75C35 3.9375 38.9375 0 43.75 0H13.125V21.4375L10.5 24.9375C9.1875 26.6875 8.3125 28.875 8.75 31.5C9.1875 33.6875 10.5 35.875 12.6875 37.1875V48.125C7.875 48.125 3.9375 52.0625 3.9375 56.875C3.9375 61.6875 7.875 65.625 12.6875 65.625V70H63.4375C58.625 70 54.25 67.375 51.625 63.4375Z" fill="black"/>
<path d="M49.8752 31.9375L46.8127 28.4375L44.1877 35C43.3127 37.1875 42.8752 38.9375 44.1877 40.6875L65.6252 67.375V35H56.4377C53.8127 35 51.6252 34.125 49.8752 31.9375Z" fill="black"/>
</svg>
