<svg width="80" height="80" viewBox="0 0 80 80" fill="none" xmlns="http://www.w3.org/2000/svg">
<path d="M6.66699 73.3331V66.6664C6.66699 66.6664 23.3337 59.9998 40.0003 59.9998C56.667 59.9998 73.3337 66.6664 73.3337 66.6664V73.3331H6.66699ZM37.667 30.3331C33.667 17.3331 13.3337 20.3331 13.3337 20.3331C13.3337 20.3331 14.0003 46.3331 33.0003 42.3331C31.667 32.6664 26.667 29.9998 26.667 29.9998C36.0003 29.9998 36.667 41.3331 36.667 41.3331V56.6664H43.3337V42.6664C43.3337 42.6664 43.3337 29.6664 53.3337 26.3331C53.3337 26.3331 46.667 36.3331 46.667 42.9998C70.0003 45.3331 70.0003 13.3331 70.0003 13.3331C70.0003 13.3331 40.3337 9.99977 37.667 30.3331Z" fill="black"/>
</svg>
