<svg width="80" height="80" viewBox="0 0 80 80" fill="none" xmlns="http://www.w3.org/2000/svg">
<path d="M40.0007 34.9039C48.3207 26.5389 69.1257 41.1739 40.0007 59.9939C10.8757 41.1739 31.6807 26.5389 40.0007 34.9039Z" fill="black"/>
<path d="M43.5354 7.49421C42.5978 6.55685 41.3262 6.03027 40.0004 6.03027C38.6746 6.03027 37.4031 6.55685 36.4654 7.49421L3.23041 40.7242C2.76164 41.1936 2.49856 41.8301 2.49902 42.4935C2.49949 43.1569 2.76348 43.7929 3.23291 44.2617C3.70235 44.7305 4.33877 44.9936 5.00218 44.9931C5.66559 44.9926 6.30164 44.7286 6.77041 44.2592L10.0004 41.0292V67.4942C10.0004 69.4833 10.7906 71.391 12.1971 72.7975C13.6036 74.204 15.5113 74.9942 17.5004 74.9942H62.5004C64.4895 74.9942 66.3972 74.204 67.8037 72.7975C69.2102 71.391 70.0004 69.4833 70.0004 67.4942V41.0292L73.2304 44.2592C73.6992 44.7286 74.3352 44.9926 74.9986 44.9931C75.6621 44.9936 76.2985 44.7305 76.7679 44.2617C77.2374 43.7929 77.5013 43.1569 77.5018 42.4935C77.5023 41.8301 77.2392 41.1936 76.7704 40.7242L65.0004 28.9592V12.4942C65.0004 11.8312 64.737 11.1953 64.2682 10.7264C63.7993 10.2576 63.1635 9.99421 62.5004 9.99421H57.5004C56.8374 9.99421 56.2015 10.2576 55.7326 10.7264C55.2638 11.1953 55.0004 11.8312 55.0004 12.4942V18.9592L43.5354 7.49421ZM65.0004 36.0292V67.4942C65.0004 68.1572 64.737 68.7931 64.2682 69.262C63.7993 69.7308 63.1635 69.9942 62.5004 69.9942H17.5004C16.8374 69.9942 16.2015 69.7308 15.7326 69.262C15.2638 68.7931 15.0004 68.1572 15.0004 67.4942V36.0292L40.0004 11.0292L65.0004 36.0292Z" fill="black"/>
</svg>
