<svg width="40" height="40" viewBox="0 0 40 40" fill="none" xmlns="http://www.w3.org/2000/svg">
<path d="M32.5 5H7.5C6.83696 5 6.20107 5.26339 5.73223 5.73223C5.26339 6.20107 5 6.83696 5 7.5V32.5C5 33.163 5.26339 33.7989 5.73223 34.2678C6.20107 34.7366 6.83696 35 7.5 35H32.5C33.163 35 33.7989 34.7366 34.2678 34.2678C34.7366 33.7989 35 33.163 35 32.5V7.5C35 6.83696 34.7366 6.20107 34.2678 5.73223C33.7989 5.26339 33.163 5 32.5 5ZM28.3844 26.6156C28.5005 26.7318 28.5926 26.8696 28.6555 27.0214C28.7183 27.1731 28.7507 27.3358 28.7507 27.5C28.7507 27.6642 28.7183 27.8269 28.6555 27.9786C28.5926 28.1304 28.5005 28.2682 28.3844 28.3844C28.2682 28.5005 28.1304 28.5926 27.9786 28.6555C27.8269 28.7183 27.6642 28.7507 27.5 28.7507C27.3358 28.7507 27.1731 28.7183 27.0214 28.6555C26.8696 28.5926 26.7318 28.5005 26.6156 28.3844L20 21.7672L13.3844 28.3844C13.1498 28.6189 12.8317 28.7507 12.5 28.7507C12.1683 28.7507 11.8502 28.6189 11.6156 28.3844C11.3811 28.1498 11.2493 27.8317 11.2493 27.5C11.2493 27.1683 11.3811 26.8502 11.6156 26.6156L18.2328 20L11.6156 13.3844C11.3811 13.1498 11.2493 12.8317 11.2493 12.5C11.2493 12.1683 11.3811 11.8502 11.6156 11.6156C11.8502 11.3811 12.1683 11.2493 12.5 11.2493C12.8317 11.2493 13.1498 11.3811 13.3844 11.6156L20 18.2328L26.6156 11.6156C26.8502 11.3811 27.1683 11.2493 27.5 11.2493C27.8317 11.2493 28.1498 11.3811 28.3844 11.6156C28.6189 11.8502 28.7507 12.1683 28.7507 12.5C28.7507 12.8317 28.6189 13.1498 28.3844 13.3844L21.7672 20L28.3844 26.6156Z" fill="#0066B3"/>
</svg>
