<svg width="60" height="61" viewBox="0 0 60 61" fill="none" xmlns="http://www.w3.org/2000/svg">
<path d="M40.6609 49.7557L23.3696 32.187C22.9904 31.8037 22.7777 31.2862 22.7777 30.747C22.7777 30.2078 22.9904 29.6903 23.3696 29.307L40.6571 11.7382C41.0362 11.3525 41.2486 10.8334 41.2486 10.2926C41.2486 9.75185 41.0362 9.2327 40.6571 8.847C40.472 8.65706 40.2507 8.50612 40.0063 8.40305C39.7618 8.29999 39.4993 8.24689 39.234 8.24689C38.9688 8.24689 38.7062 8.29999 38.4618 8.40305C38.2174 8.50612 37.9961 8.65706 37.8109 8.847L20.5234 26.412C19.3874 27.569 18.751 29.1256 18.751 30.747C18.751 32.3684 19.3874 33.925 20.5234 35.082L37.8109 52.647C37.9961 52.8375 38.2177 52.9889 38.4624 53.0923C38.7072 53.1957 38.9702 53.249 39.2359 53.249C39.5016 53.249 39.7646 53.1957 40.0094 53.0923C40.2541 52.9889 40.4757 52.8375 40.6609 52.647C41.0399 52.2613 41.2523 51.7421 41.2523 51.2014C41.2523 50.6606 41.0399 50.1415 40.6609 49.7557Z" fill="#333333"/>
</svg>
