<svg width="60" height="61" viewBox="0 0 60 61" fill="none" xmlns="http://www.w3.org/2000/svg">
<path d="M19.3391 11.7384L36.6304 29.3071C37.0096 29.6905 37.2223 30.2079 37.2223 30.7471C37.2223 31.2864 37.0096 31.8038 36.6304 32.1871L19.3429 49.7559C18.9638 50.1416 18.7514 50.6607 18.7514 51.2015C18.7514 51.7423 18.9638 52.2614 19.3429 52.6471C19.528 52.8371 19.7493 52.988 19.9937 53.0911C20.2382 53.1941 20.5007 53.2472 20.766 53.2472C21.0312 53.2472 21.2938 53.1941 21.5382 53.0911C21.7826 52.988 22.0039 52.8371 22.1891 52.6471L39.4766 35.0821C40.6126 33.9252 41.249 32.3686 41.249 30.7471C41.249 29.1257 40.6126 27.5691 39.4766 26.4121L22.1891 8.84715C22.0039 8.65664 21.7823 8.5052 21.5376 8.4018C21.2928 8.29839 21.0298 8.24512 20.7641 8.24512C20.4984 8.24512 20.2354 8.29839 19.9906 8.4018C19.7459 8.5052 19.5243 8.65664 19.3391 8.84715C18.9601 9.23285 18.7477 9.752 18.7477 10.2928C18.7477 10.8335 18.9601 11.3527 19.3391 11.7384Z" fill="#333333"/>
</svg>
