<svg width="72" height="72" viewBox="0 0 72 72" fill="none" xmlns="http://www.w3.org/2000/svg">
<path fill-rule="evenodd" clip-rule="evenodd" d="M25.7143 -0.00585937C25.0323 -0.00585937 24.3782 0.265058 23.896 0.747295C23.4138 1.22953 23.1429 1.88358 23.1429 2.56557V23.137H2.57143C1.88944 23.137 1.23539 23.4079 0.753154 23.8902C0.270918 24.3724 0 25.0264 0 25.7084L0 46.2799C0 46.9618 0.270918 47.6159 0.753154 48.0981C1.23539 48.5804 1.88944 48.8513 2.57143 48.8513H23.1429V69.4227C23.1429 70.1047 23.4138 70.7588 23.896 71.241C24.3782 71.7232 25.0323 71.9941 25.7143 71.9941H46.2857C46.9677 71.9941 47.6218 71.7232 48.104 71.241C48.5862 70.7588 48.8571 70.1047 48.8571 69.4227V48.8513H69.4286C70.1106 48.8513 70.7646 48.5804 71.2468 48.0981C71.7291 47.6159 72 46.9618 72 46.2799V25.7084C72 25.0264 71.7291 24.3724 71.2468 23.8902C70.7646 23.4079 70.1106 23.137 69.4286 23.137H48.8571V2.56557C48.8571 1.88358 48.5862 1.22953 48.104 0.747295C47.6218 0.265058 46.9677 -0.00585937 46.2857 -0.00585938L25.7143 -0.00585937Z" fill="black"/>
</svg>
